<svg xmlns="http://www.w3.org/2000/svg" viewBox="0 0 32 32"><path d="M28.93 27.66c-3.51 2.59-8.58 3.96-12.96 3.96-6.13 0-11.65-2.26-15.83-6.04-0.33-0.29-0.04-0.7 0.36-0.47 4.51 2.63 10.08 4.2 15.84 4.2 3.88 0 8.15-0.81 12.08-2.48 0.59-0.25 1.09 0.39 0.51 0.82z"/><path d="M30.38 26c-0.45-0.58-2.96-0.28-4.09-0.14-0.34 0.04-0.39-0.26-0.09-0.48 2.01-1.41 5.29-1 5.68-0.53 0.39 0.48-0.1 3.77-1.98 5.34-0.29 0.24-0.56 0.11-0.44-0.21 0.43-1.06 1.38-3.42 0.93-3.99z"/><path d="M22.11 23.68l0.01 0.01c0.78-0.68 2.17-1.9 2.96-2.56 0.31-0.25 0.26-0.67 0.01-1.02-0.71-0.98-1.46-1.77-1.46-3.57v-6c0-2.54 0.18-4.88-1.69-6.63-1.48-1.41-3.93-1.91-5.8-1.91-3.66 0-7.75 1.37-8.61 5.89-0.09 0.48 0.26 0.74 0.58 0.81l3.73 0.41c0.35-0.02 0.6-0.36 0.67-0.71 0.32-1.56 1.63-2.31 3.09-2.31 0.79 0 1.69 0.29 2.16 1 0.54 0.79 0.47 1.88 0.47 2.79v0.5c-2.23 0.25-5.15 0.41-7.24 1.33-2.41 1.04-4.11 3.17-4.11 6.29 0 4 2.52 6 5.76 6 2.74 0 4.23-0.64 6.34-2.81 0.7 1.01 0.93 1.51 2.21 2.57 0.29 0.16 0.66 0.14 0.91-0.09zM18.23 14.29c0 1.5 0.04 2.75-0.72 4.08-0.61 1.09-1.58 1.75-2.66 1.75-1.48 0-2.34-1.13-2.34-2.79 0-3.28 2.94-3.88 5.73-3.88v0.83z"/></svg>