<svg xmlns="http://www.w3.org/2000/svg" viewBox="0 0 32 32"><path d="M8.07 13.95l-4.58-7.93c2.93-3.67 7.45-6.02 12.51-6.02 5.86 0 10.98 3.15 13.77 7.84h-13.06c-0.24-0.02-0.47-0.03-0.71-0.03-3.81 0-7.02 2.61-7.93 6.14zM21.73 10.16h9.17c0.71 1.81 1.1 3.78 1.1 5.84 0 8.78-7.07 15.9-15.82 16l6.54-11.33c0.92-1.32 1.46-2.93 1.46-4.66 0-2.29-0.94-4.36-2.46-5.84zM10.19 16c0-3.21 2.61-5.81 5.81-5.81s5.81 2.61 5.81 5.81c0 3.21-2.61 5.81-5.81 5.81s-5.81-2.61-5.81-5.81zM18.19 23.89l-4.58 7.93c-7.7-1.15-13.61-7.8-13.61-15.82 0-2.85 0.75-5.53 2.05-7.85l6.53 11.31c1.31 2.79 4.14 4.72 7.42 4.72 0.76 0 1.5-0.1 2.19-0.3z"/></svg>