<svg xmlns="http://www.w3.org/2000/svg" viewBox="0 0 32 32"><path d="M16 32c-8.83 0-16-7.18-16-16s7.18-16 16-16c8.83 0 16 7.18 16 16s-7.18 16-16 16v0zM29.49 18.19c-0.47-0.15-4.23-1.27-8.51-0.58 1.79 4.91 2.51 8.91 2.66 9.74 3.06-2.08 5.25-5.36 5.86-9.16v0zM21.34 28.6c-0.21-1.2-0.99-5.38-2.91-10.36-0.03 0.01-0.06 0.02-0.09 0.03-7.71 2.69-10.48 8.03-10.73 8.53 2.32 1.81 5.23 2.89 8.39 2.89 1.89 0 3.7-0.39 5.34-1.09v0zM5.84 25.16c0.31-0.53 4.06-6.74 11.11-9.02 0.18-0.06 0.36-0.11 0.54-0.16-0.34-0.78-0.72-1.56-1.11-2.32-6.82 2.04-13.44 1.96-14.04 1.95-0.01 0.14-0.01 0.28-0.01 0.42 0 3.51 1.33 6.71 3.51 9.13v0zM2.63 13.22c0.61 0.01 6.24 0.03 12.64-1.66-2.26-4.03-4.71-7.41-5.07-7.91-3.83 1.81-6.69 5.33-7.57 9.57v0zM12.8 2.73c0.38 0.51 2.86 3.89 5.1 8 4.86-1.82 6.92-4.59 7.16-4.94-2.41-2.14-5.59-3.44-9.06-3.44-1.1 0.01-2.18 0.14-3.2 0.38v0zM26.58 7.38c-0.29 0.39-2.58 3.33-7.63 5.39 0.32 0.65 0.63 1.31 0.91 1.98 0.1 0.24 0.2 0.47 0.29 0.71 4.55-0.57 9.07 0.34 9.52 0.44-0.03-3.23-1.19-6.19-3.09-8.51v0z"/></svg>