<svg xmlns="http://www.w3.org/2000/svg" viewBox="0 0 32 32"><path d="M21.57 14.74c-1.9-0.9-4.31-1.08-6.09 0.19 2.16-0.21 4.53 0.15 6.1 1.79 1.5-1.72 3.88-2.04 6.03-1.87-1.8-1.19-4.16-1.03-6.04-0.11v0zM20.8 18.93c-2.14-0.05-4.2 0.72-5.97 1.88-3.35-1.43-7.59-1.16-10.44 1.22 0.82-0.03 1.63-0.23 2.44-0.34 2.97-0.3 6.14 0.44 8.39 2.49 0.93-1.36 2.24-2.45 3.74-3.12 1.97-0.95 4.19-1.05 6.34-1.08-1.3-0.9-2.96-1.06-4.5-1.05z"/><path d="M28.68 7.16c-0.69-0.95-1.66-2.05-2.72-3.12s-2.17-2.03-3.12-2.72c-1.61-1.18-2.39-1.32-2.84-1.32h-15.5c-1.38 0-2.5 1.12-2.5 2.5v27c0 1.38 1.12 2.5 2.5 2.5h23c1.38 0 2.5-1.12 2.5-2.5v-19.5c0-0.45-0.14-1.23-1.32-2.84v0zM24.54 5.46c0.96 0.96 1.71 1.83 2.27 2.54h-4.81v-4.81c0.72 0.56 1.58 1.31 2.54 2.27v0zM28 29.5c0 0.27-0.23 0.5-0.5 0.5h-23c-0.27 0-0.5-0.23-0.5-0.5v-27c0-0.27 0.23-0.5 0.5-0.5 0 0 15.5-0 15.5 0v7c0 0.55 0.45 1 1 1h7v19.5z"/></svg>