<svg xmlns="http://www.w3.org/2000/svg" viewBox="0 0 32 32"><path d="M17.79 24.32c-0-0-0-0-0-0 0 0 0 0 0 0z"/><path d="M17.83 25.45c-0-0.01-0-0.02-0-0.02 0 0.01 0 0.02 0 0.02z"/><path d="M17.81 24.89c-0-0.01-0-0.01-0-0.02 0 0.01 0 0.01 0 0.02z"/><path d="M30 0h-28c-1.1 0-2 0.9-2 2v28c0 1.1 0.9 2 2 2h15.43c0 0 0 0 0 0s0-0 0-0h12.56c1.1 0 2-0.9 2-2v-28c0-1.1-0.9-2-2-2zM6 7c0-0.55 0.45-1 1-1s1 0.45 1 1v2c0 0.55-0.45 1-1 1s-1-0.45-1-1v-2zM30 30h-11.72c-0.21-1.32-0.34-2.67-0.42-3.99 0 0 0 0.01 0 0.01-0.62 0.07-1.24 0.1-1.86 0.1-4.18 0-8.2-1.52-11.33-4.28-0.47-0.41-0.51-1.12-0.1-1.59s1.12-0.51 1.59-0.1c2.72 2.4 6.21 3.72 9.84 3.72 0.6 0 1.19-0.04 1.78-0.11-0.07-3.69 0.22-6.62 0.22-6.67 0.03-0.28-0.06-0.56-0.25-0.77s-0.46-0.33-0.74-0.33h-2.97c0.04-1.08 0.16-2.93 0.47-5.01 0.59-3.96 1.63-7.06 3.01-8.99h12.5v28z"/><path d="M25 10c-0.55 0-1-0.45-1-1v-2c0-0.55 0.45-1 1-1s1 0.45 1 1v2c0 0.55-0.45 1-1 1z"/><path d="M16.89 26.1c-0.11 0.01-0.23 0.01-0.34 0.01 0.11-0 0.23-0.01 0.34-0.01z"/><path d="M16 26.13c0.15 0 0.29-0 0.44-0.01-0.15 0-0.29 0.01-0.44 0.01z"/><path d="M16.85 23.85c0.02-0 0.05-0 0.07-0-0.02 0-0.05 0-0.07 0z"/><path d="M16.41 23.87c0.03-0 0.07-0 0.1-0-0.03 0-0.07 0-0.1 0z"/><path d="M27.43 20.26c-0.41-0.47-1.12-0.51-1.59-0.1-2.27 2-5.08 3.25-8.06 3.61 0.01 0.73 0.04 1.48 0.09 2.26 3.5-0.38 6.81-1.83 9.47-4.18 0.47-0.41 0.51-1.12 0.1-1.59z"/><path d="M17.86 26.02c-0.14 0.02-0.29 0.03-0.43 0.04 0.15-0.01 0.29-0.03 0.43-0.04z"/><path d="M17.36 26.07c-0.12 0.01-0.24 0.02-0.37 0.03 0.12-0.01 0.25-0.02 0.37-0.03z"/></svg>