<svg xmlns="http://www.w3.org/2000/svg" viewBox="0 0 32 32"><path d="M31.95 10.44l-0.37 2.38c0 0-0.53-4.4-1.18-6.05-1-2.52-1.44-2.5-1.44-2.5 0.67 1.69 0.55 2.6 0.55 2.6s-1.18-3.22-4.3-4.24c-3.46-1.13-5.33-0.82-5.55-0.77-0.03-0-0.06-0-0.1-0 0.03 0 0.05 0.01 0.08 0.01-0 0-0 0-0 0 0.01 0.02 3.82 0.67 4.5 1.59 0 0-1.62 0-3.23 0.46-0.07 0.02 5.92 0.75 7.15 6.74 0 0-0.66-1.37-1.47-1.6 0.54 1.63 0.4 4.71-0.11 6.25-0.07 0.2-0.13-0.85-1.14-1.31 0.32 2.3-0.02 5.95-1.62 6.96-0.12 0.08 1-3.6 0.23-2.18-4.46 6.84-9.73 3.16-12.1 1.54 1.22 0.26 3.52-0.04 4.54-0.8 0-0 0-0 0-0 1.11-0.76 1.77-1.31 2.35-1.18s0.98-0.46 0.52-0.99c-0.46-0.53-1.57-1.25-3.08-0.86-1.06 0.28-2.38 1.45-4.39 0.26-1.54-0.91-1.69-1.67-1.7-2.2 0.04-0.19 0.09-0.36 0.14-0.52 0.18-0.5 0.72-0.65 1.02-0.76 0.51 0.09 0.95 0.25 1.41 0.48 0.01-0.15 0.01-0.36-0-0.59 0.04-0.09 0.02-0.35-0.05-0.67-0.04-0.32-0.11-0.66-0.21-0.96 0-0 0-0 0-0 0-0 0-0 0.01-0s0.01-0 0.01-0.01c0-0 0-0 0-0 0-0 0.01-0.01 0.01-0.02 0.03-0.14 0.38-0.42 0.8-0.72 0.38-0.27 0.83-0.55 1.19-0.77 0.31-0.2 0.55-0.34 0.61-0.38 0.02-0.02 0.04-0.03 0.07-0.05 0.01-0 0.01-0.01 0.01-0.01 0-0 0.01-0.01 0.01-0.01 0.17-0.14 0.42-0.39 0.47-0.92 0-0 0-0 0-0 0-0.02 0-0.03 0-0.05 0-0.01 0-0.02 0-0.03 0-0.01 0-0.02 0-0.03 0-0.02 0-0.04 0-0.07 0-0 0-0 0-0 0-0.05-0-0.11-0-0.16-0-0.03-0-0.06-0.01-0.09-0-0-0-0-0-0-0-0-0-0.01-0-0.01-0-0.01-0-0.01-0-0.01-0-0-0-0-0-0-0-0.01-0-0.01-0.01-0.01-0-0-0-0-0-0-0.06-0.13-0.26-0.18-1.11-0.19-0-0-0-0-0-0v0c-0.35-0.01-0.8-0.01-1.39-0-1.04 0-1.61-1.02-1.8-1.41 0.25-1.39 0.98-2.38 2.17-3.05 0.02-0.01 0.02-0.02-0.01-0.03 0.23-0.14-2.82-0-4.23 1.78-1.25-0.31-2.33-0.29-3.27-0.07-0.18-0.01-0.4-0.03-0.67-0.08-0.62-0.56-1.51-1.61-1.56-2.85 0 0-0 0-0.01 0.01-0-0.01-0-0.02-0-0.04 0 0-1.9 1.46-1.61 5.43-0 0.06-0 0.13-0 0.18-0.51 0.7-0.77 1.28-0.79 1.41-0.46 0.93-0.92 2.32-1.29 4.44 0 0 0.26-0.83 0.79-1.78-0.39 1.19-0.69 3.04-0.51 5.81 0 0 0.05-0.62 0.22-1.5 0.13 1.72 0.7 3.84 2.15 6.34 2.78 4.79 7.05 7.21 11.78 7.58 0.84 0.07 1.69 0.07 2.54 0.01 0.08-0.01 0.16-0.01 0.24-0.02 0.97-0.07 1.94-0.21 2.91-0.45 13.29-3.21 11.84-19.26 11.84-19.26z"/></svg>