<svg xmlns="http://www.w3.org/2000/svg" viewBox="0 0 32 32"><path d="M22.94 19.65h7.38c0.06-0.51 0.08-1.03 0.08-1.57 0-2.51-0.67-4.86-1.85-6.88 1.22-3.23 1.17-5.97-0.46-7.61-1.55-1.54-5.7-1.29-10.39 0.79-0.35-0.03-0.7-0.04-1.05-0.04-6.44 0-11.84 4.43-13.34 10.4 2.02-2.59 4.15-4.46 6.98-5.83-0.26 0.24-1.76 1.74-2.02 1.99-7.49 7.48-9.85 17.26-7.31 19.8 1.93 1.93 5.43 1.6 9.45-0.36 1.87 0.95 3.98 1.49 6.23 1.49 6.04 0 11.15-3.89 13-9.3h-7.43c-1.02 1.89-3.02 3.17-5.32 3.17s-4.3-1.28-5.32-3.17c-0.46-0.85-0.72-1.83-0.72-2.86v-0.02h12.07zM10.88 16.03c0.17-3.04 2.69-5.46 5.77-5.46s5.6 2.42 5.77 5.46h-11.55zM28.03 5.12c1.05 1.06 1.02 3.01 0.13 5.44-1.54-2.34-3.77-4.19-6.4-5.24 2.82-1.21 5.11-1.37 6.27-0.2zM2.92 30.23c-1.34-1.34-0.93-4.14 0.79-7.53 1.07 3.01 3.16 5.53 5.85 7.16-2.98 1.35-5.42 1.58-6.64 0.37z"/></svg>