<svg xmlns="http://www.w3.org/2000/svg" viewBox="0 0 32 32"><path d="M14.11 23.94l-1.18-3.19c0 0-1.91 2.13-4.76 2.13-2.53 0-4.33-2.2-4.33-5.72 0-4.51 2.28-6.12 4.51-6.12 3.23 0 4.25 2.09 5.13 4.76l1.18 3.66c1.18 3.56 3.38 6.41 9.71 6.41 4.54 0 7.63-1.39 7.63-5.06 0-2.97-1.69-4.51-4.84-5.24l-2.34-0.51c-1.61-0.37-2.09-1.03-2.09-2.13 0-1.24 0.99-1.98 2.6-1.98 1.76 0 2.71 0.66 2.86 2.24l3.66-0.44c-0.29-3.3-2.57-4.66-6.31-4.66-3.3 0-6.53 1.24-6.53 5.24 0 2.49 1.21 4.07 4.25 4.8l2.49 0.59c1.87 0.44 2.49 1.21 2.49 2.28 0 1.36-1.32 1.91-3.81 1.91-3.7 0-5.24-1.94-6.12-4.62l-1.21-3.66c-1.53-4.77-3.99-6.53-8.86-6.53-5.39 0-8.25 3.41-8.25 9.2 0 5.57 2.86 8.58 7.99 8.58 4.14 0 6.12-1.94 6.12-1.94v0z"/></svg>