<svg xmlns="http://www.w3.org/2000/svg" viewBox="0 0 32 32"><path d="M32 16v0 0c0 4.74-2.06 9-5.34 11.93-4.11 2-7.93 0.6-9.19-0.28 4.03-0.88 7.08-5.76 7.08-11.65s-3.04-10.77-7.08-11.66c1.27-0.88 5.09-2.28 9.19-0.28 3.28 2.93 5.34 7.19 5.34 11.93v0 0z"/><path d="M10.73 6.98c-1.77 2.09-2.91 5.18-2.99 8.64 0 0.01 0 0.74 0 0.76 0.08 3.46 1.23 6.55 2.99 8.64 2.29 2.98 5.71 4.87 9.52 4.87 2.34 0 4.54-0.71 6.41-1.96-2.84 2.53-6.58 4.07-10.67 4.07-0.26 0-0.51-0.01-0.76-0.02-8.48-0.4-15.24-7.4-15.24-15.98 0-8.84 7.16-16 16-16 0.02 0 0.04 0 0.06 0 4.08 0.01 7.79 1.55 10.61 4.08-1.88-1.24-4.07-1.96-6.41-1.96-3.81 0-7.23 1.89-9.53 4.87z"/></svg>