<svg xmlns="http://www.w3.org/2000/svg" viewBox="0 0 32 32"><path d="M29.06 9.64c-1.49 6.63-6.11 10.13-13.38 10.13h-2.42l-1.68 10.68h-2.03l-0.11 0.69c-0.07 0.46 0.28 0.86 0.74 0.86h5.18c0.61 0 1.13-0.44 1.23-1.05l0.05-0.26 0.98-6.18 0.06-0.34c0.09-0.61 0.62-1.05 1.23-1.05h0.77c5.01 0 8.94-2.04 10.09-7.93 0.43-2.24 0.27-4.14-0.71-5.55z"/><path d="M25.97 2.41c-1.48-1.69-4.16-2.41-7.59-2.41h-9.94c-0.7 0-1.3 0.51-1.41 1.2l-4.14 26.26c-0.08 0.52 0.32 0.99 0.84 0.99h6.14l1.54-9.78-0.05 0.31c0.11-0.69 0.7-1.2 1.4-1.2h2.92c5.73 0 10.22-2.33 11.53-9.06 0.04-0.2 0.08-0.39 0.1-0.58 0.39-2.49 0-4.19-1.35-5.72z"/></svg>