<svg xmlns="http://www.w3.org/2000/svg" viewBox="0 0 32 32"><path d="M16 2.14c-7.66 0-13.86 6.21-13.86 13.86 0 5.88 3.66 10.89 8.81 12.91-0.12-1.09-0.23-2.78 0.05-3.98 0.25-1.08 1.63-6.89 1.63-6.89s-0.41-0.83-0.41-2.06c0-1.93 1.12-3.37 2.51-3.37 1.18 0 1.76 0.89 1.76 1.95 0 1.19-0.76 2.97-1.15 4.61-0.33 1.38 0.69 2.51 2.05 2.51 2.46 0 4.36-2.6 4.36-6.35 0-3.32-2.39-5.64-5.79-5.64-3.94 0-6.26 2.96-6.26 6.02 0 1.19 0.46 2.47 1.03 3.16 0.11 0.14 0.13 0.26 0.09 0.4-0.11 0.44-0.34 1.38-0.39 1.58-0.06 0.26-0.2 0.31-0.46 0.19-1.73-0.81-2.81-3.34-2.81-5.37 0-4.38 3.18-8.39 9.16-8.39 4.81 0 8.54 3.43 8.54 8.01 0 4.78-3.01 8.63-7.19 8.63-1.41 0-2.73-0.73-3.18-1.59 0 0-0.69 2.64-0.86 3.29-0.31 1.21-1.16 2.71-1.73 3.63 1.3 0.4 2.68 0.62 4.11 0.62 7.66 0 13.86-6.21 13.86-13.86 0-7.66-6.21-13.87-13.86-13.87z"/></svg>