<svg xmlns="http://www.w3.org/2000/svg" viewBox="0 0 32 32"><path d="M16 0c-8.84 0-16 7.16-16 16s7.16 16 16 16 16-7.16 16-16-7.16-16-16-16zM29.95 14.78l-0.03-0.33c0.01 0.11 0.02 0.22 0.03 0.33zM27.76 8.4l-0.23-0.34c0.08 0.11 0.15 0.23 0.23 0.34zM26.89 7.21l-0.14-0.17c0.05 0.06 0.09 0.11 0.14 0.17zM24.96 5.24l-0.17-0.14c0.06 0.05 0.11 0.09 0.17 0.14zM23.94 4.46l-0.34-0.23c0.11 0.08 0.23 0.15 0.34 0.23zM17.56 2.09l-0.34-0.03c0.11 0.01 0.23 0.02 0.34 0.03zM14.78 2.05l-0.34 0.03c0.11-0.01 0.23-0.02 0.34-0.03zM8.4 4.24l-0.34 0.23c0.11-0.08 0.23-0.15 0.34-0.23zM7.21 5.11l-0.16 0.13c0.06-0.04 0.11-0.09 0.16-0.13zM5.24 7.04l-0.14 0.17c0.05-0.06 0.09-0.11 0.14-0.17zM4.46 8.06l-0.23 0.34c0.08-0.11 0.15-0.23 0.23-0.34zM2.09 14.44l-0.03 0.34c0.01-0.11 0.02-0.23 0.03-0.34zM2.05 17.23l0.03 0.34c-0.01-0.11-0.02-0.23-0.03-0.34zM4.24 23.59l0.23 0.34c-0.08-0.11-0.15-0.22-0.23-0.34zM4.5 23.99l2.49-1.67-0.28-0.42-2.49 1.67c-1.13-1.76-1.88-3.78-2.13-5.95l1.49-0.15-0.05-0.5-1.49 0.15c-0.03-0.29-0.04-0.58-0.04-0.88h3v-0.5h-3c0.01-0.29 0.02-0.58 0.04-0.88l1.49 0.14 0.05-0.5-1.49-0.14c0.25-2.18 1-4.19 2.13-5.95l2.49 1.67 0.28-0.42-2.5-1.66c0.17-0.24 0.34-0.48 0.52-0.7l1.16 0.95 0.32-0.39-1.16-0.95c0.19-0.23 0.39-0.44 0.59-0.65l2.12 2.12 0.36-0.36-2.12-2.12c0.21-0.2 0.43-0.4 0.64-0.59l0.95 1.16 0.39-0.32-0.95-1.16c0.23-0.18 0.46-0.36 0.7-0.53l1.67 2.49 0.42-0.28-1.67-2.49c1.76-1.13 3.78-1.88 5.95-2.13l0.15 1.49 0.5-0.05-0.15-1.49c0.29-0.03 0.58-0.04 0.88-0.04v3h0.5v-3c0.29 0.01 0.58 0.02 0.88 0.04l-0.14 1.49 0.5 0.05 0.14-1.49c2.18 0.25 4.19 1 5.95 2.13l-1.67 2.49 0.42 0.28 1.67-2.49c0.24 0.17 0.48 0.34 0.7 0.52l-0.95 1.16 0.39 0.32 0.95-1.16c0.23 0.19 0.44 0.39 0.65 0.59l-0.8 0.78-10.94 7.29-7.29 10.94-0.78 0.78c-0.2-0.21-0.4-0.43-0.59-0.64l1.16-0.95-0.32-0.39-1.16 0.95c-0.18-0.23-0.35-0.46-0.52-0.7zM5.24 24.96c-0.04-0.06-0.09-0.11-0.13-0.16l0.13 0.16zM7.04 26.76l0.16 0.13c-0.06-0.04-0.11-0.09-0.16-0.13zM8.06 27.53l0.34 0.23c-0.11-0.07-0.23-0.14-0.34-0.23zM14.44 29.91l0.34 0.03c-0.11-0.01-0.23-0.02-0.34-0.03zM17.23 29.95l0.33-0.03c-0.11 0.01-0.22 0.02-0.33 0.03zM23.6 27.76l0.34-0.23c-0.11 0.08-0.23 0.15-0.34 0.23zM24.79 26.89l0.17-0.14c-0.06 0.05-0.11 0.09-0.17 0.14zM25.89 25.91l0.03-0.03c-0.01 0.01-0.02 0.02-0.03 0.03zM26.76 24.96l0.14-0.17c-0.05 0.06-0.09 0.11-0.14 0.17zM26.98 24.69l-1.16-0.95-0.32 0.39 1.16 0.95c-0.19 0.23-0.39 0.44-0.59 0.65l-2.12-2.12-0.36 0.36 2.12 2.12c-0.21 0.2-0.43 0.4-0.64 0.59l-0.95-1.16-0.39 0.32 0.95 1.16c-0.23 0.18-0.46 0.36-0.7 0.53l-1.67-2.49-0.42 0.28 1.67 2.49c-1.76 1.13-3.78 1.88-5.95 2.13l-0.15-1.49-0.5 0.05 0.15 1.49c-0.29 0.03-0.58 0.04-0.88 0.04v-3h-0.5v3c-0.29-0.01-0.58-0.02-0.88-0.04l0.14-1.49-0.5-0.05-0.14 1.49c-2.18-0.25-4.19-1-5.95-2.13l1.67-2.49-0.42-0.28-1.66 2.49c-0.24-0.17-0.48-0.34-0.7-0.52l0.95-1.16-0.39-0.32-0.95 1.16c-0.23-0.19-0.44-0.39-0.65-0.59l0.79-0.78 10.94-7.29 7.29-10.94 0.78-0.78c0.2 0.21 0.4 0.43 0.59 0.64l-1.16 0.95 0.32 0.39 1.16-0.95c0.18 0.23 0.36 0.46 0.53 0.7l-2.49 1.67 0.28 0.42 2.49-1.67c1.13 1.76 1.88 3.78 2.13 5.95l-1.49 0.15 0.05 0.5 1.49-0.15c0.03 0.29 0.04 0.58 0.04 0.88h-3v0.5h3c-0.01 0.29-0.02 0.58-0.04 0.88l-1.49-0.14-0.05 0.5 1.49 0.14c-0.25 2.18-1 4.19-2.13 5.95l-2.49-1.67-0.28 0.42 2.49 1.67c-0.16 0.23-0.34 0.46-0.52 0.69zM29.95 17.22c-0.01 0.11-0.02 0.23-0.03 0.34l0.03-0.34zM27.76 23.6c-0.08 0.11-0.15 0.23-0.23 0.34l0.23-0.34z"/><path d="M13.52 2.22l0.59 2.94-0.49 0.1-0.59-2.94 0.49-0.1z"/><path d="M18.49 29.78l-0.59-2.94 0.49-0.1 0.59 2.94-0.49 0.1z"/><path d="M12.18 2.53l0.44 1.44-0.48 0.15-0.44-1.44 0.48-0.15z"/><path d="M19.83 29.47l-0.44-1.44 0.48-0.15 0.44 1.44-0.48 0.15z"/><path d="M10.88 2.97l1.15 2.77-0.46 0.19-1.15-2.77 0.46-0.19z"/><path d="M21.13 29.03l-1.15-2.77 0.46-0.19 1.15 2.77-0.46 0.19z"/><path d="M9.18 3.77l0.44-0.24 0.71 1.32-0.44 0.24-0.71-1.32z"/><path d="M22.82 28.23l-0.44 0.24-0.71-1.32 0.44-0.24 0.71 1.32z"/><path d="M3.77 9.18l1.32 0.71-0.24 0.44-1.32-0.71 0.24-0.44z"/><path d="M28.23 22.82l-1.32-0.71 0.24-0.44 1.32 0.71-0.24 0.44z"/><path d="M5.74 12.02l-2.77-1.15 0.19-0.46 2.77 1.15-0.19 0.46z"/><path d="M26.26 19.98l2.77 1.15-0.19 0.46-2.77-1.15 0.19-0.46z"/><path d="M2.67 11.7l1.44 0.44-0.15 0.48-1.44-0.44 0.15-0.48z"/><path d="M29.32 20.3l-1.44-0.44 0.15-0.48 1.44 0.44-0.15 0.48z"/><path d="M2.32 13.02l2.94 0.59-0.1 0.49-2.94-0.59 0.1-0.49z"/><path d="M29.68 18.98l-2.94-0.59 0.1-0.49 2.94 0.59-0.1 0.49z"/><path d="M2.22 18.49l2.94-0.59 0.1 0.49-2.94 0.59-0.1-0.49z"/><path d="M29.78 13.51l-2.94 0.59-0.1-0.49 2.94-0.59 0.1 0.49z"/><path d="M2.53 19.83l1.44-0.44 0.15 0.48-1.44 0.44-0.15-0.48z"/><path d="M29.47 12.18l-1.44 0.44-0.15-0.48 1.44-0.44 0.15 0.48z"/><path d="M3.16 21.59l-0.19-0.46 2.77-1.15 0.19 0.46-2.77 1.15z"/><path d="M28.84 10.41l0.19 0.46-2.77 1.15-0.19-0.46 2.77-1.15z"/><path d="M3.78 22.82l-0.24-0.44 1.32-0.71 0.24 0.44-1.32 0.71z"/><path d="M28.23 9.18l0.24 0.44-1.32 0.71-0.24-0.44 1.32-0.71z"/><path d="M9.62 28.46l-0.44-0.24 0.71-1.32 0.44 0.24-0.71 1.32z"/><path d="M22.38 3.53l0.44 0.24-0.71 1.32-0.44-0.24 0.71-1.32z"/><path d="M10.42 28.84l1.15-2.77 0.46 0.19-1.15 2.77-0.46-0.19z"/><path d="M21.59 3.16l-1.15 2.77-0.46-0.19 1.15-2.77 0.46 0.19z"/><path d="M12.18 29.47l-0.48-0.15 0.44-1.44 0.48 0.15-0.44 1.44z"/><path d="M19.82 2.53l0.48 0.15-0.44 1.44-0.48-0.15 0.44-1.44z"/><path d="M13.52 29.78l-0.49-0.1 0.59-2.94 0.49 0.1-0.59 2.94z"/><path d="M18.49 2.22l0.49 0.1-0.59 2.94-0.49-0.1 0.59-2.94z"/></svg>