<svg xmlns="http://www.w3.org/2000/svg" viewBox="0 0 32 32"><path d="M13.3 1.17c-0.05-0.03-0.11-0.06-0.16-0.08-0.06 0.01-0.11 0.02-0.16 0.03l0.32 0.05z"/><path d="M1.15 13.16c-0.01 0.06-0.02 0.11-0.03 0.16 0.03 0.05 0.05 0.1 0.08 0.15l-0.06-0.31z"/><path d="M30.84 18.83c0.01-0.06 0.02-0.11 0.03-0.17-0.03-0.05-0.05-0.1-0.08-0.15l0.05 0.32z"/><path d="M18.5 30.72c0.05 0.03 0.11 0.06 0.16 0.08 0.06-0.01 0.11-0.02 0.17-0.03l-0.33-0.06z"/><path d="M30.87 18.66c-0.01 0.06-0.02 0.11-0.03 0.17l-0.06-0.33c0.03 0.06 0.06 0.11 0.09 0.16 0.16-0.9 0.25-1.82 0.25-2.74 0-2.04-0.4-4.02-1.19-5.88-0.76-1.8-1.85-3.42-3.24-4.81s-3.01-2.48-4.8-3.24c-1.86-0.79-3.84-1.19-5.88-1.19-0.96 0-1.93 0.09-2.86 0.27 0 0-0.01 0-0.01 0 0.05 0.03 0.11 0.05 0.16 0.08l-0.32-0.05c0.06-0.01 0.11-0.02 0.16-0.03-1.29-0.68-2.73-1.05-4.19-1.05-2.39 0-4.64 0.93-6.33 2.62s-2.62 3.94-2.62 6.33c0 1.52 0.39 3.02 1.13 4.34 0.01-0.06 0.02-0.11 0.03-0.16l0.06 0.32c-0.03-0.05-0.06-0.1-0.08-0.15-0.15 0.86-0.23 1.73-0.23 2.61 0 2.04 0.4 4.02 1.19 5.88 0.76 1.8 1.85 3.41 3.24 4.8s3.01 2.48 4.81 3.24c1.86 0.79 3.84 1.19 5.88 1.19 0.89 0 1.78-0.08 2.64-0.24-0.05-0.03-0.1-0.06-0.16-0.08l0.33 0.06c-0.06 0.01-0.11 0.02-0.17 0.03 1.34 0.76 2.86 1.16 4.4 1.16 2.39 0 4.64-0.93 6.33-2.62s2.62-3.94 2.62-6.33c-0.01-1.52-0.4-3.02-1.14-4.35zM16.07 25.18c-5.37 0-7.77-2.64-7.77-4.62 0-1.01 0.75-1.73 1.78-1.73 2.3 0 1.7 3.3 5.99 3.3 2.19 0 3.41-1.19 3.41-2.41 0-0.73-0.36-1.54-1.81-1.9l-4.78-1.19c-3.84-0.96-4.54-3.04-4.54-5 0-4.06 3.82-5.58 7.41-5.58 3.31 0 7.2 1.83 7.2 4.26 0 1.04-0.91 1.65-1.94 1.65-1.96 0-1.6-2.71-5.55-2.71-1.96 0-3.04 0.89-3.04 2.16s1.55 1.68 2.89 1.98l3.54 0.79c3.87 0.86 4.85 3.13 4.85 5.25 0 3.29-2.53 5.76-7.64 5.76z"/></svg>