<svg xmlns="http://www.w3.org/2000/svg" viewBox="0 0 32 32"><path d="M16 0c-8.8 0-16 7.2-16 16s7.2 16 16 16 16-7.2 16-16-7.12-16-16-16zM23.36 23.12c-0.32 0.48-0.88 0.64-1.36 0.32-3.76-2.32-8.48-2.8-14.08-1.52-0.56 0.16-1.04-0.24-1.2-0.72-0.16-0.56 0.24-1.04 0.72-1.2 6.08-1.36 11.36-0.8 15.52 1.76 0.56 0.24 0.64 0.88 0.41 1.36zM25.28 18.72c-0.4 0.56-1.12 0.8-1.68 0.4-4.32-2.64-10.88-3.44-15.92-1.84-0.64 0.16-1.36-0.16-1.52-0.8-0.16-0.64 0.16-1.36 0.8-1.52 5.84-1.76 13.04-0.88 18 2.16 0.48 0.24 0.72 1.04 0.32 1.59zM25.44 14.24c-5.12-3.04-13.68-3.36-18.56-1.84-0.8 0.24-1.6-0.24-1.84-0.96-0.24-0.8 0.24-1.6 0.96-1.84 5.68-1.68 15.04-1.36 20.96 2.16 0.72 0.4 0.96 1.36 0.56 2.08-0.41 0.56-1.36 0.79-2.09 0.39z"/></svg>