<svg xmlns="http://www.w3.org/2000/svg" viewBox="0 0 32 32"><path d="M22 9c0-1.66 1.34-3 3-3s3 1.34 3 3c0 1.66-1.34 3-3 3s-3-1.34-3-3zM29.95 4.05c-2.73-2.73-7.17-2.73-9.9 0-1.11 1.11-1.77 2.51-1.98 3.95v0l-6.4 9.7c-0.86 0.04-1.71 0.26-2.5 0.66l-4.93-3.86c-1.14-0.89-2.79-0.69-3.69 0.45s-0.69 2.79 0.45 3.69l4.87 3.81c-0.53 2.09 0.02 4.39 1.65 6.03 2.47 2.47 6.46 2.47 8.93 0 1.52-1.52 2.1-3.61 1.75-5.57l7.78-6.97c1.45-0.21 2.84-0.87 3.95-1.98 2.73-2.73 2.73-7.17 0-9.9zM12 28.21c-2.33 0-4.21-1.88-4.21-4.21 0-0.02 0-0.04 0-0.07l2.09 1.63c0.48 0.38 1.05 0.56 1.62 0.56 0.78 0 1.55-0.35 2.07-1.01 0.89-1.14 0.69-2.79-0.45-3.69l-1.98-1.55c0.28-0.06 0.57-0.09 0.87-0.09 2.33 0 4.21 1.88 4.21 4.21s-1.89 4.21-4.21 4.21zM25 14c-2.76 0-5-2.24-5-5s2.24-5 5-5 5 2.24 5 5-2.24 5-5 5z"/></svg>