<svg xmlns="http://www.w3.org/2000/svg" viewBox="0 0 32 32"><path d="M18 14l-0 7.32c0 1.86-0.02 2.93 0.17 3.45 0.2 0.52 0.69 1.07 1.22 1.38 0.71 0.43 1.52 0.64 2.43 0.64 1.62 0 2.58-0.21 4.18-1.27v4.81c-1.37 0.64-2.56 1.02-3.67 1.28-1.11 0.26-2.31 0.39-3.6 0.39-1.46 0-2.33-0.18-3.45-0.55-1.12-0.37-2.08-0.9-2.88-1.58-0.8-0.69-1.34-1.41-1.65-2.18s-0.46-1.89-0.46-3.35v-11.22h-4.3v-4.53c1.26-0.41 2.66-0.99 3.56-1.76 0.9-0.76 1.62-1.68 2.16-2.75 0.54-1.07 0.92-2.43 1.12-4.08h5.16l-0 8h8v6h-8z"/></svg>