<svg xmlns="http://www.w3.org/2000/svg" viewBox="0 0 32 32"><path d="M32 7.08c-1.18 0.53-2.44 0.88-3.77 1.03 1.36-0.81 2.39-2.1 2.89-3.63-1.27 0.75-2.68 1.3-4.17 1.59-1.2-1.28-2.91-2.07-4.79-2.07-3.63 0-6.56 2.94-6.56 6.56 0 0.51 0.06 1.01 0.17 1.49-5.46-0.28-10.29-2.89-13.53-6.86-0.56 0.97-0.89 2.1-0.89 3.3 0 2.28 1.16 4.29 2.92 5.46-1.08-0.03-2.09-0.33-2.98-0.82 0 0.03 0 0.06 0 0.08 0 3.18 2.26 5.84 5.27 6.44-0.55 0.15-1.13 0.23-1.73 0.23-0.43 0-0.83-0.04-1.24-0.12 0.84 2.61 3.26 4.51 6.13 4.56-2.25 1.76-5.08 2.81-8.16 2.81-0.53 0-1.05-0.03-1.57-0.09 2.91 1.87 6.36 2.95 10.07 2.95 12.08 0 18.68-10.01 18.68-18.68 0-0.29-0.01-0.57-0.02-0.85 1.28-0.92 2.39-2.08 3.28-3.39z"/></svg>