<svg xmlns="http://www.w3.org/2000/svg" viewBox="0 0 32 32"><path d="M31.99 8.56c-0.14 3.11-2.32 7.38-6.53 12.79-4.35 5.65-8.03 8.48-11.04 8.48-1.86 0-3.44-1.72-4.73-5.16-0.86-3.16-1.72-6.31-2.58-9.47-0.96-3.44-1.98-5.16-3.08-5.16-0.24 0-1.08 0.51-2.51 1.51l-1.51-1.94c1.58-1.39 3.14-2.78 4.67-4.16 2.11-1.82 3.69-2.78 4.74-2.88 2.49-0.24 4.03 1.46 4.6 5.11 0.62 3.93 1.05 6.38 1.29 7.33 0.72 3.26 1.51 4.89 2.37 4.89 0.67 0 1.68-1.06 3.02-3.18 1.34-2.11 2.06-3.73 2.16-4.83 0.19-1.83-0.53-2.74-2.16-2.74-0.77 0-1.56 0.18-2.37 0.53 1.58-5.15 4.58-7.65 9.01-7.51 3.28 0.09 4.83 2.22 4.64 6.39z"/></svg>