<svg xmlns="http://www.w3.org/2000/svg" viewBox="0 0 32 32"><path d="M30.03 15.91c-0.83 0.19-1.62 0.28-2.34 0.28-4.04 0-7.14-2.82-7.14-7.73 0-2.41 0.93-3.65 2.24-3.65 1.25 0 2.08 1.12 2.08 3.39 0 1.29-0.34 2.71-0.6 3.55 0 0 1.24 2.17 4.64 1.51 0.73-1.61 1.11-3.68 1.11-5.5 0-4.9-2.5-7.76-7.08-7.76-4.71 0-7.47 3.62-7.47 8.39 0 4.73 2.21 8.79 5.86 10.64-1.53 3.07-3.48 5.77-5.52 7.81-3.69-4.46-7.03-10.41-8.39-22.03h-5.44c2.52 19.35 10.01 25.51 12 26.69 1.12 0.68 2.09 0.64 3.11 0.06 1.61-0.91 6.44-5.75 9.13-11.41 1.13 0 2.48-0.13 3.82-0.44v-3.81z"/></svg>