<svg xmlns="http://www.w3.org/2000/svg" viewBox="0 0 32 32"><path d="M29 0h-26c-1.65 0-3 1.35-3 3v26c0 1.65 1.35 3 3 3h26c1.65 0 3-1.35 3-3v-26c0-1.65-1.35-3-3-3zM25.92 22.4l-2.93 0.04c0 0-0.63 0.13-1.46-0.44-1.09-0.75-2.13-2.71-2.93-2.45-0.81 0.26-0.79 2.01-0.79 2.01s0.01 0.38-0.18 0.58c-0.2 0.22-0.6 0.26-0.6 0.26h-1.31c0 0-2.89 0.18-5.43-2.48-2.78-2.89-5.23-8.62-5.23-8.62s-0.14-0.38 0.01-0.56c0.18-0.21 0.64-0.22 0.64-0.22l3.13-0.02c0 0 0.29 0.05 0.51 0.21 0.18 0.13 0.27 0.37 0.27 0.37s0.51 1.28 1.18 2.44c1.31 2.26 1.92 2.75 2.36 2.51 0.64-0.35 0.45-3.19 0.45-3.19s0.01-1.03-0.33-1.49c-0.26-0.36-0.76-0.46-0.97-0.49-0.18-0.03 0.11-0.43 0.49-0.62 0.56-0.28 1.56-0.29 2.73-0.28 0.91 0.01 1.18 0.07 1.54 0.15 1.08 0.26 0.71 1.27 0.71 3.68 0 0.78-0.14 1.86 0.42 2.22 0.24 0.16 0.83 0.03 2.29-2.47 0.69-1.18 1.22-2.57 1.22-2.57s0.11-0.25 0.29-0.36c0.18-0.11 0.43-0.08 0.43-0.08l3.29-0.02c0 0 0.99-0.12 1.15 0.33 0.17 0.47-0.37 1.56-1.71 3.36-2.21 2.94-2.46 2.67-0.62 4.37 1.75 1.63 2.11 2.42 2.18 2.52 0.71 1.2-0.81 1.29-0.81 1.29z"/></svg>