<svg xmlns="http://www.w3.org/2000/svg" viewBox="0 0 32 32"><path d="M27.28 4.65c-2.99-3-6.98-4.65-11.22-4.65-8.74 0-15.85 7.11-15.85 15.86 0 2.79 0.73 5.53 2.12 7.93l-2.25 8.22 8.41-2.21c2.32 1.26 4.93 1.93 7.58 1.93h0.01c0 0 0 0 0 0 8.74 0 15.86-7.11 15.86-15.86 0-4.24-1.65-8.22-4.64-11.22zM16.07 29.05v0c-2.37 0-4.69-0.64-6.71-1.84l-0.48-0.29-4.99 1.31 1.33-4.86-0.31-0.5c-1.33-2.09-2.02-4.52-2.02-7.01 0-7.27 5.91-13.18 13.19-13.18 3.52 0 6.83 1.38 9.32 3.86 2.49 2.49 3.86 5.8 3.86 9.33-0.01 7.28-5.92 13.19-13.18 13.19zM23.29 19.18c-0.39-0.2-2.34-1.16-2.71-1.29s-0.63-0.2-0.89 0.2c-0.26 0.39-1.03 1.29-1.26 1.56-0.23 0.26-0.46 0.3-0.86 0.1s-1.68-0.62-3.19-1.97c-1.18-1.05-1.98-2.35-2.21-2.74s-0.03-0.61 0.18-0.81c0.18-0.18 0.39-0.46 0.59-0.69s0.26-0.39 0.39-0.66c0.13-0.26 0.07-0.49-0.03-0.69s-0.89-2.15-1.22-2.94c-0.32-0.78-0.65-0.67-0.89-0.68-0.23-0.01-0.49-0.01-0.76-0.01s-0.69 0.1-1.06 0.49c-0.36 0.39-1.39 1.36-1.39 3.31s1.42 3.83 1.62 4.1c0.2 0.26 2.79 4.27 6.77 5.98 0.94 0.41 1.68 0.65 2.26 0.84 0.95 0.3 1.81 0.26 2.49 0.16 0.76-0.11 2.34-0.96 2.68-1.88s0.33-1.72 0.23-1.88c-0.09-0.18-0.36-0.28-0.76-0.48z"/></svg>