<svg xmlns="http://www.w3.org/2000/svg" viewBox="0 0 32 32"><path d="M30.21 7.3c0 0.1-0.03 0.19-0.09 0.28-0.06 0.08-0.13 0.13-0.21 0.13-0.63 0.06-1.14 0.26-1.53 0.6-0.4 0.34-0.81 0.99-1.23 1.95l-6.45 14.54c-0.04 0.14-0.16 0.2-0.36 0.2-0.15 0-0.27-0.07-0.36-0.2l-3.62-7.56-4.16 7.56c-0.09 0.14-0.2 0.2-0.36 0.2-0.19 0-0.31-0.07-0.37-0.2l-6.33-14.54c-0.39-0.9-0.81-1.53-1.25-1.89s-1.05-0.58-1.83-0.66c-0.07 0-0.13-0.04-0.19-0.11-0.06-0.07-0.09-0.15-0.09-0.24 0-0.24 0.07-0.36 0.2-0.36 0.56 0 1.16 0.03 1.78 0.08 0.58 0.05 1.11 0.08 1.62 0.08 0.51 0 1.13-0.03 1.83-0.08 0.73-0.05 1.38-0.08 1.95-0.08 0.14 0 0.2 0.12 0.2 0.36s-0.04 0.35-0.13 0.35c-0.56 0.04-1.01 0.19-1.34 0.43s-0.49 0.56-0.49 0.96c0 0.2 0.07 0.46 0.2 0.76l5.23 11.83 2.98-5.61-2.77-5.81c-0.5-1.04-0.91-1.71-1.23-2.01s-0.81-0.48-1.46-0.55c-0.06 0-0.11-0.04-0.17-0.11s-0.08-0.15-0.08-0.24c0-0.24 0.06-0.36 0.18-0.36 0.56 0 1.08 0.03 1.56 0.08 0.46 0.05 0.94 0.08 1.46 0.08 0.51 0 1.04-0.03 1.61-0.08 0.58-0.05 1.16-0.08 1.72-0.08 0.14 0 0.2 0.12 0.2 0.36s-0.04 0.35-0.13 0.35c-1.13 0.08-1.69 0.4-1.69 0.96 0 0.25 0.13 0.64 0.39 1.18l1.83 3.72 1.83-3.4c0.25-0.48 0.38-0.89 0.38-1.21 0-0.78-0.56-1.19-1.69-1.24-0.1 0-0.15-0.12-0.15-0.35 0-0.09 0.03-0.16 0.08-0.24s0.1-0.11 0.15-0.11c0.41 0 0.9 0.03 1.49 0.08 0.56 0.05 1.03 0.08 1.39 0.08 0.26 0 0.64-0.03 1.15-0.06 0.64-0.06 1.18-0.09 1.61-0.09 0.1 0 0.15 0.1 0.15 0.3 0 0.27-0.09 0.41-0.28 0.41-0.66 0.07-1.19 0.25-1.59 0.54s-0.9 0.96-1.5 2.01l-2.44 4.48 3.29 6.7 4.86-11.29c0.17-0.41 0.25-0.79 0.25-1.14 0-0.83-0.56-1.26-1.69-1.32-0.1 0-0.15-0.12-0.15-0.35 0-0.24 0.08-0.36 0.23-0.36 0.41 0 0.9 0.03 1.47 0.08 0.53 0.05 0.96 0.08 1.31 0.08 0.38 0 0.8-0.03 1.29-0.08 0.51-0.05 0.96-0.08 1.37-0.08 0.13 0 0.19 0.1 0.19 0.3z"/></svg>