<svg xmlns="http://www.w3.org/2000/svg" viewBox="0 0 32 32"><path d="M4.86 6.32c-0.28 0-0.51 0.1-0.63 0.29-0.12 0.2-0.1 0.45 0.03 0.71l3.12 5.4c0.01 0.01 0.01 0.02 0 0.03l-4.9 8.66c-0.13 0.26-0.12 0.51 0 0.71 0.12 0.19 0.33 0.31 0.6 0.31h4.61c0.69 0 1.03-0.47 1.26-0.89 0 0 4.79-8.48 4.98-8.81-0.02-0.03-3.18-5.53-3.18-5.53-0.23-0.41-0.58-0.86-1.29-0.86h-4.6z"/><path d="M24.25 0c-0.69 0-0.99 0.43-1.24 0.88 0 0-9.94 17.63-10.27 18.21 0.02 0.03 6.56 12.03 6.56 12.03 0.23 0.41 0.58 0.88 1.29 0.88h4.61c0.28 0 0.49-0.11 0.61-0.29 0.13-0.2 0.12-0.46-0.01-0.71l-6.5-11.89c-0.01-0.01-0.01-0.02 0-0.03l10.22-18.07c0.13-0.26 0.13-0.51 0.01-0.71-0.12-0.19-0.34-0.29-0.61-0.29h-4.67z"/></svg>