<svg xmlns="http://www.w3.org/2000/svg" viewBox="0 0 32 32"><path d="M31.68 9.6c0 0-0.31-2.21-1.28-3.18-1.22-1.28-2.58-1.28-3.21-1.36-4.48-0.33-11.19-0.33-11.19-0.33h-0.01c0 0-6.72 0-11.19 0.33-0.63 0.08-1.99 0.08-3.21 1.36-0.96 0.97-1.27 3.18-1.27 3.18s-0.32 2.59-0.32 5.18v2.43c0 2.59 0.32 5.18 0.32 5.18s0.31 2.21 1.27 3.18c1.22 1.28 2.82 1.23 3.53 1.37 2.56 0.24 10.88 0.32 10.88 0.32s6.73-0.01 11.2-0.33c0.63-0.08 1.99-0.08 3.21-1.36 0.96-0.97 1.28-3.18 1.28-3.18s0.32-2.59 0.32-5.18v-2.43c-0.01-2.59-0.33-5.18-0.33-5.18zM12.69 20.15v-8.99l8.64 4.51-8.64 4.48z"/></svg>